<?xml version="1.0" standalone="no"?>
<!DOCTYPE svg PUBLIC "-//W3C//DTD SVG 20010904//EN"
 "http://www.w3.org/TR/2001/REC-SVG-20010904/DTD/svg10.dtd">
<svg version="1.0" xmlns="http://www.w3.org/2000/svg"
 width="540.000000pt" height="360.000000pt" viewBox="0 0 540.000000 360.000000"
 preserveAspectRatio="xMidYMid meet">

<g transform="translate(0.000000,360.000000) scale(0.100000,-0.100000)"
fill="#000000" stroke="none">
<path d="M2557 3052 c-64 -66 -117 -124 -117 -131 0 -6 18 -47 40 -90 l39 -79
-55 19 c-184 65 -397 8 -540 -144 -181 -191 -201 -443 -59 -723 l52 -102 -40
-6 c-79 -13 -149 -66 -183 -141 -42 -88 -25 -145 43 -145 35 0 48 13 59 55 17
70 63 105 136 105 95 -1 168 -80 168 -183 0 -118 -51 -189 -166 -228 -92 -32
-289 -34 -372 -5 -125 43 -286 183 -351 305 -66 125 -92 320 -52 406 52 116
200 159 286 84 85 -75 86 -174 1 -245 -45 -38 -52 -64 -25 -97 33 -43 84 -31
145 35 54 57 69 95 69 178 0 62 -5 83 -28 125 -49 92 -104 137 -195 160 -146
38 -304 -41 -370 -185 -39 -84 -42 -240 -6 -363 5 -15 2 -16 -23 -6 -37 14
-140 14 -178 -1 -97 -37 -155 -118 -155 -217 0 -67 19 -103 55 -103 39 0 55
25 55 87 0 95 52 139 153 131 101 -8 178 -92 192 -209 13 -105 -39 -218 -115
-249 -48 -20 -111 -6 -232 51 -93 44 -125 54 -178 57 -104 6 -177 -36 -221
-125 -33 -68 -34 -210 -1 -304 21 -61 21 -68 7 -102 -37 -88 4 -237 65 -237
28 0 30 24 9 81 -19 49 -19 55 -5 94 81 212 676 379 1591 447 228 17 1078 17
1290 0 681 -54 1128 -143 1398 -278 103 -52 163 -103 189 -161 18 -41 18 -43
-1 -99 -21 -62 -19 -84 9 -84 61 0 102 149 65 237 -14 34 -14 41 7 102 18 51
23 88 23 161 0 86 -3 100 -30 150 -18 33 -47 66 -73 85 -40 27 -51 30 -125 30
-78 0 -87 -2 -195 -54 -121 -57 -183 -71 -232 -51 -74 31 -129 145 -115 244
17 131 101 218 210 218 88 0 135 -47 135 -136 0 -59 16 -86 51 -86 63 0 82
120 33 211 -27 48 -73 88 -129 109 -38 15 -141 15 -178 1 -25 -10 -28 -9 -23
6 16 56 28 165 24 232 -5 95 -39 172 -99 231 -54 52 -98 75 -175 90 -51 10
-71 9 -124 -4 -93 -24 -148 -69 -197 -161 -23 -42 -28 -63 -28 -125 0 -83 15
-121 69 -178 61 -66 112 -78 145 -36 30 38 27 51 -23 98 -24 22 -49 51 -55 63
-39 78 33 202 127 218 84 14 176 -38 213 -120 40 -87 14 -280 -53 -408 -38
-72 -148 -188 -229 -241 -87 -57 -151 -78 -259 -83 -301 -15 -486 158 -377
352 65 116 237 113 277 -5 21 -64 27 -70 64 -70 40 0 66 26 66 66 0 45 -43
127 -86 162 -37 31 -110 62 -145 62 -14 0 -8 19 35 103 146 287 122 543 -66
731 -151 150 -347 201 -530 139 l-56 -19 39 78 c21 42 39 83 39 89 0 7 -53 65
-117 131 -90 91 -123 118 -143 118 -20 0 -53 -27 -143 -118z m212 -86 l63 -63
-65 -127 c-74 -147 -60 -150 -147 23 l-52 104 63 63 c35 35 66 64 69 64 3 0
34 -29 69 -64z m-318 -348 c52 -24 139 -91 139 -107 0 -4 -26 -12 -59 -19
-123 -26 -238 -109 -290 -210 -89 -174 -57 -464 73 -670 15 -24 26 -46 23 -48
-2 -2 -55 49 -118 113 -123 127 -190 219 -243 335 -127 274 -29 539 229 624
64 22 180 13 246 -18z m801 -5 c134 -63 217 -186 226 -336 11 -192 -80 -376
-297 -600 -110 -113 -147 -141 -101 -78 73 103 130 298 130 446 0 237 -126
402 -342 447 -32 7 -58 15 -58 18 0 6 52 56 82 79 10 7 43 24 75 37 84 36 192
30 285 -13z m-347 -267 c74 -33 109 -66 143 -131 45 -88 42 -276 -8 -408 -22
-57 -109 -211 -116 -204 -2 2 3 33 12 68 25 95 23 239 -5 311 -27 71 -81 121
-152 142 -66 20 -92 20 -160 0 -70 -21 -130 -81 -155 -155 -23 -70 -23 -211 0
-298 9 -35 14 -66 12 -68 -7 -7 -94 147 -116 204 -50 132 -53 320 -8 408 31
59 67 95 125 124 68 34 110 40 243 38 112 -3 131 -6 185 -31z m-130 -340 c36
-24 53 -55 65 -116 13 -70 -3 -193 -36 -274 -23 -58 -93 -176 -105 -176 -10 0
-98 156 -114 204 -40 123 -39 268 3 326 42 58 129 74 187 36z m-352 -701 l69
-50 -99 -6 c-54 -4 -130 -7 -170 -8 l-71 -1 29 53 c16 28 34 78 40 109 l11 57
62 -52 c33 -29 92 -75 129 -102z m747 113 c0 -39 38 -123 70 -156 12 -13 20
-24 19 -25 -2 -1 -82 3 -177 8 l-172 10 105 79 c58 44 113 88 122 98 24 26 33
22 33 -14z m-1744 -245 c38 -21 38 -21 14 -27 -110 -25 -245 -54 -247 -52 -1
1 7 20 17 42 11 22 25 68 31 101 l11 61 68 -51 c37 -29 85 -62 106 -74z m2733
62 c6 -33 20 -77 31 -99 11 -22 18 -41 17 -42 -2 -1 -109 21 -247 52 -23 5
-21 7 25 34 28 16 75 49 105 73 30 24 56 44 57 43 0 0 6 -28 12 -61z m-3405
-200 l99 -48 -56 -23 c-89 -35 -197 -93 -250 -131 -26 -20 -50 -33 -53 -30
-13 12 -26 128 -20 172 6 37 16 57 42 83 32 32 38 34 87 30 34 -4 86 -22 151
-53z m4125 29 c33 -27 51 -76 51 -137 0 -40 -19 -127 -27 -127 -3 0 -26 15
-52 34 -49 36 -161 95 -251 132 l-55 23 35 14 c19 9 69 31 110 51 93 45 145
48 189 10z"/>
</g>
</svg>
